<svg width="32" height="32" viewBox="0 0 32 32" fill="none" xmlns="http://www.w3.org/2000/svg">
<path d="M18.9889 21.1641C19.3972 21.237 19.6792 21.2303 19.6793 21.2529H29.2438V25.749C29.2437 28.0381 27.2818 30 24.9928 30H6.92542C4.63644 29.9999 2.6745 28.038 2.67444 25.749V21.1641H18.9889Z" fill="url(#paint0_linear_584_8949)"/>
<path d="M25.0748 2.95215C27.3637 2.95231 29.3257 4.91421 29.3258 7.20312V11.8633H20.0055C19.9603 11.8597 15.9996 11.5643 15.9996 16.4414C15.9997 21.0194 19.6793 20.6927 19.6793 20.7744H29.2438V21.165H2.67444V7.20312C2.67452 4.91414 4.63642 2.95219 6.92542 2.95215H25.0748ZM28.9987 19.2207H20.5787C20.5736 19.2213 17.7174 19.5448 17.7174 16.3594C17.7175 12.9318 20.8134 13.1704 20.8239 13.0898H28.9987V19.2207ZM20.9049 14.9697C20.3329 14.9699 19.8422 15.4602 19.7604 16.0322C19.7604 16.4409 20.0058 16.8501 20.3326 17.0137C20.6596 17.1772 21.0691 17.1772 21.3961 17.0137C21.723 16.7684 21.9684 16.4409 21.9684 16.0322C21.9682 15.4601 21.4771 14.9697 20.9049 14.9697Z" fill="black"/>
<path d="M25.0748 2.95215C27.3637 2.95231 29.3257 4.91421 29.3258 7.20312V11.8633H20.0055C19.9603 11.8597 15.9996 11.5643 15.9996 16.4414C15.9997 21.0194 19.6793 20.6927 19.6793 20.7744H29.2438V21.165H2.67444V7.20312C2.67452 4.91414 4.63642 2.95219 6.92542 2.95215H25.0748ZM28.9987 19.2207H20.5787C20.5736 19.2213 17.7174 19.5448 17.7174 16.3594C17.7175 12.9318 20.8134 13.1704 20.8239 13.0898H28.9987V19.2207ZM20.9049 14.9697C20.3329 14.9699 19.8422 15.4602 19.7604 16.0322C19.7604 16.4409 20.0058 16.8501 20.3326 17.0137C20.6596 17.1772 21.0691 17.1772 21.3961 17.0137C21.723 16.7684 21.9684 16.4409 21.9684 16.0322C21.9682 15.4601 21.4771 14.9697 20.9049 14.9697Z" fill="url(#paint1_linear_584_8949)"/>
<path d="M25.0748 2C27.3637 2.00016 29.3257 3.96206 29.3257 6.25098V10.9111H20.0054C19.9602 10.9076 15.9996 10.6121 15.9996 15.4893C15.9996 20.0673 19.6793 19.7405 19.6793 19.8223H29.2437V24.3184C29.2437 26.6074 27.2818 28.5693 24.9927 28.5693H6.92535C4.63631 28.5693 2.67438 26.6074 2.67438 24.3184V6.25098C2.67446 3.96199 4.63636 2.00004 6.92535 2H25.0748ZM28.9986 12.1377V18.2686H20.5787C20.5787 18.2686 17.7173 18.5956 17.7173 15.4072C17.7174 11.9793 20.8138 12.2183 20.8238 12.1377H28.9986ZM20.9048 14.0176C20.3328 14.0178 19.8421 14.508 19.7603 15.0801C19.7603 15.4887 20.0057 15.8979 20.3326 16.0615C20.6596 16.225 21.069 16.225 21.3961 16.0615C21.723 15.8163 21.9683 15.4888 21.9683 15.0801C21.9682 14.5079 21.477 14.0176 20.9048 14.0176Z" fill="black"/>
<path d="M25.0748 2C27.3637 2.00016 29.3257 3.96206 29.3257 6.25098V10.9111H20.0054C19.9602 10.9076 15.9996 10.6121 15.9996 15.4893C15.9996 20.0673 19.6793 19.7405 19.6793 19.8223H29.2437V24.3184C29.2437 26.6074 27.2818 28.5693 24.9927 28.5693H6.92535C4.63631 28.5693 2.67438 26.6074 2.67438 24.3184V6.25098C2.67446 3.96199 4.63636 2.00004 6.92535 2H25.0748ZM28.9986 12.1377V18.2686H20.5787C20.5787 18.2686 17.7173 18.5956 17.7173 15.4072C17.7174 11.9793 20.8138 12.2183 20.8238 12.1377H28.9986ZM20.9048 14.0176C20.3328 14.0178 19.8421 14.508 19.7603 15.0801C19.7603 15.4887 20.0057 15.8979 20.3326 16.0615C20.6596 16.225 21.069 16.225 21.3961 16.0615C21.723 15.8163 21.9683 15.4888 21.9683 15.0801C21.9682 14.5079 21.477 14.0176 20.9048 14.0176Z" fill="url(#paint2_linear_584_8949)"/>
<circle cx="20.8224" cy="15.5004" r="1.30023" fill="white"/>
<circle cx="20.8224" cy="15.5004" r="1.30023" fill="url(#paint3_linear_584_8949)"/>
<circle cx="20.8224" cy="15.1498" r="1.30023" fill="white"/>
<defs>
<linearGradient id="paint0_linear_584_8949" x1="2.67444" y1="-14.1639" x2="29.4077" y2="-14.1639" gradientUnits="userSpaceOnUse">
<stop stop-color="#0170E3"/>
<stop offset="0.491672" stop-color="#43BDFF"/>
<stop offset="1" stop-color="#0170E3"/>
</linearGradient>
<linearGradient id="paint1_linear_584_8949" x1="2.67444" y1="-15.1182" x2="29.4079" y2="-15.1182" gradientUnits="userSpaceOnUse">
<stop stop-color="#0170E3"/>
<stop offset="0.491672" stop-color="#43BDFF"/>
<stop offset="1" stop-color="#0170E3"/>
</linearGradient>
<linearGradient id="paint2_linear_584_8949" x1="16.0001" y1="2" x2="16.0001" y2="28.5693" gradientUnits="userSpaceOnUse">
<stop stop-color="#43BDFF"/>
<stop offset="1" stop-color="#027EFF"/>
</linearGradient>
<linearGradient id="paint3_linear_584_8949" x1="19.45" y1="14.3085" x2="22.1949" y2="14.3088" gradientUnits="userSpaceOnUse">
<stop stop-color="#6AD9FF"/>
<stop offset="0.355" stop-color="#047BE6"/>
<stop offset="0.495" stop-color="#66D9FD"/>
<stop offset="0.655" stop-color="#047BE6"/>
<stop offset="1" stop-color="#6AD9FF"/>
</linearGradient>
</defs>
</svg>
