<svg width="20" height="20" viewBox="0 0 20 20" fill="none" xmlns="http://www.w3.org/2000/svg">
<path d="M18.745 9.64996C18.9114 9.90874 19 10.2099 19 10.5176V16.0713C18.9997 16.3909 18.936 16.7072 18.8126 17.002C18.6892 17.2968 18.5085 17.5642 18.281 17.7886C17.8186 18.2449 17.195 18.5005 16.5453 18.5H3.45467C2.80504 18.5005 2.18139 18.2449 1.719 17.7886C1.49151 17.5642 1.31083 17.2968 1.18741 17.002C1.06399 16.7072 1.00029 16.3909 1 16.0713V10.5236C1 10.2336 1.079 9.94862 1.22833 9.69896C1.37833 9.44869 1.5928 9.24331 1.84933 9.10429C2.10695 8.96458 2.39712 8.89597 2.69003 8.90552C2.98294 8.91507 3.26803 9.00243 3.516 9.15862L9.98267 13.238L16.486 9.15129C16.8532 8.92036 17.2966 8.84358 17.72 8.93762C17.9295 8.9838 18.128 9.07042 18.3043 9.19262C18.4798 9.31463 18.6296 9.47004 18.745 9.64996Z" fill="#8D9FC7"/>
<path d="M14.0911 1.5C14.7421 1.5 15.3664 1.756 15.8267 2.21133C16.0542 2.43582 16.2348 2.7032 16.3582 2.99799C16.4815 3.29278 16.5452 3.60911 16.5454 3.92867V7.97633L10.0134 12.0233L3.45508 7.97667V3.92867C3.45508 3.28433 3.71341 2.66667 4.17374 2.21133C4.63605 1.75511 5.25957 1.49953 5.90908 1.5H14.0911ZM7.22675 3.52667C6.80008 3.52667 6.58675 3.74 6.58675 4.16667C6.58675 4.59333 6.80008 4.80667 7.22675 4.80667H12.7734C13.2001 4.80667 13.4134 4.59333 13.4134 4.16667C13.4134 3.74 13.2001 3.52667 12.7734 3.52667H7.22675ZM9.36008 6.51333H7.22675C6.80008 6.51333 6.58675 6.72667 6.58675 7.15333C6.58675 7.58 6.80008 7.79333 7.22675 7.79333H9.36008C9.78675 7.79333 10.0001 7.58 10.0001 7.15333C10.0001 6.72667 9.78675 6.51333 9.36008 6.51333Z" fill="#0065FF"/>
</svg>
