<svg width="11" height="13" viewBox="0 0 11 13" fill="none" xmlns="http://www.w3.org/2000/svg">
<g opacity="0.8">
<path d="M0.5 2.72266H1.61111H10.5" stroke="white" stroke-linecap="round" stroke-linejoin="round"/>
<path d="M9.38911 2.72222V10.5C9.38911 10.7947 9.27204 11.0773 9.06367 11.2857C8.8553 11.494 8.57268 11.6111 8.278 11.6111H2.72244C2.42775 11.6111 2.14514 11.494 1.93676 11.2857C1.72839 11.0773 1.61133 10.7947 1.61133 10.5V2.72222M3.27799 2.72222V1.61111C3.27799 1.31643 3.39506 1.03381 3.60343 0.825437C3.81181 0.617063 4.09442 0.5 4.38911 0.5H6.61133C6.90601 0.5 7.18863 0.617063 7.397 0.825437C7.60538 1.03381 7.72244 1.31643 7.72244 1.61111V2.72222" stroke="white" stroke-linecap="round" stroke-linejoin="round"/>
<path d="M4.38867 5.5V8.83333" stroke="white" stroke-linecap="round" stroke-linejoin="round"/>
<path d="M6.61133 5.5V8.83333" stroke="white" stroke-linecap="round" stroke-linejoin="round"/>
</g>
</svg>
